<?xml version="1.0" encoding="UTF-8"?>
<svg id="Layer_2" data-name="Layer 2" xmlns="http://www.w3.org/2000/svg" viewBox="0 0 47.26 69.18">
  <defs>
    <style>
      .cls-1 {
        fill: #c7b299;
      }
    </style>
  </defs>
  <g id="Layer_1-2" data-name="Layer 1">
    <path class="cls-1" d="M0,66.71h47.26v2.47H0v-2.47ZM39.53,64.24V0H7.41v64.24h2.47V2.47h27.18v61.77h2.47ZM32.12,7.41h-2.47v4.94h2.47v-4.94ZM17.29,7.41h-2.47v4.94h2.47v-4.94ZM24.71,7.41h-2.47v4.94h2.47v-4.94ZM32.12,17.29h-2.47v4.94h2.47v-4.94ZM17.29,17.29h-2.47v4.94h2.47v-4.94ZM24.71,17.29h-2.47v4.94h2.47v-4.94ZM32.12,27.18h-2.47v4.94h2.47v-4.94ZM17.29,27.18h-2.47v4.94h2.47v-4.94ZM24.71,27.18h-2.47v4.94h2.47v-4.94ZM32.12,37.06h-2.47v4.94h2.47v-4.94ZM17.29,37.06h-2.47v4.94h2.47v-4.94ZM24.71,37.06h-2.47v4.94h2.47v-4.94ZM29.65,51.88h2.47v-4.94h-2.47v4.94ZM14.82,51.88h2.47v-4.94h-2.47v4.94ZM22.23,51.88h2.47v-4.94h-2.47v4.94Z"/>
  </g>
</svg>